M48
; DRILL file {KiCad 5.99.0+really5.1.10+dfsg1-1} date Sun Nov 28 15:47:14 2021
; FORMAT={-:-/ absolute / metric / decimal}
; #@! TF.CreationDate,2021-11-28T15:47:14+05:30
; #@! TF.GenerationSoftware,Kicad,Pcbnew,5.99.0+really5.1.10+dfsg1-1
FMAT,2
METRIC
T1C0.600
T2C0.700
T3C0.800
T4C0.900
T5C1.000
%
G90
G05
T1
X118.11Y-72.39
X118.11Y-73.89
X118.11Y-78.51
X118.11Y-80.01
T2
X143.51Y-74.93
X148.59Y-74.93
X149.86Y-59.69
X149.86Y-64.77
T3
X125.73Y-74.93
X125.73Y-79.83
X131.935Y-54.915
X131.935Y-57.455
X131.935Y-59.995
X131.935Y-62.535
X131.935Y-65.075
X131.935Y-67.615
X131.935Y-70.155
X131.935Y-72.695
X131.935Y-75.235
X131.935Y-77.775
X131.935Y-80.315
X131.935Y-82.855
X131.935Y-85.395
X131.935Y-87.935
X139.555Y-54.915
X139.555Y-57.455
X139.555Y-59.995
X139.555Y-62.535
X139.555Y-65.075
X139.555Y-67.615
X139.555Y-70.155
X139.555Y-72.695
X139.555Y-75.235
X139.555Y-77.775
X139.555Y-80.315
X139.555Y-82.855
X139.555Y-85.395
X139.555Y-87.935
T4
X144.78Y-69.85
X147.32Y-69.85
T5
X119.38Y-49.53
X119.38Y-52.07
X119.38Y-54.61
X119.38Y-57.15
X119.38Y-59.69
X119.38Y-62.23
X119.38Y-64.77
X119.38Y-67.31
X120.65Y-85.09
X120.65Y-87.63
X120.65Y-90.17
X144.78Y-52.07
X144.78Y-54.61
X144.78Y-57.15
X144.78Y-59.69
X144.78Y-62.23
X144.78Y-64.77
X149.86Y-78.74
X149.86Y-81.28
X149.86Y-87.63
X149.86Y-90.17
X149.86Y-92.71
X149.86Y-95.25
X149.86Y-97.79
X149.86Y-100.33
T0
M30
