%TF.GenerationSoftware,KiCad,Pcbnew,5.99.0+really5.1.10+dfsg1-1*%
%TF.CreationDate,2021-11-28T15:47:42+05:30*%
%TF.ProjectId,atmega 08,61746d65-6761-4203-9038-2e6b69636164,rev?*%
%TF.SameCoordinates,Original*%
%TF.FileFunction,Soldermask,Top*%
%TF.FilePolarity,Negative*%
%FSLAX46Y46*%
G04 Gerber Fmt 4.6, Leading zero omitted, Abs format (unit mm)*
G04 Created by KiCad (PCBNEW 5.99.0+really5.1.10+dfsg1-1) date 2021-11-28 15:47:42*
%MOMM*%
%LPD*%
G01*
G04 APERTURE LIST*
%ADD10O,1.700000X1.700000*%
%ADD11R,1.700000X1.700000*%
%ADD12R,1.200000X1.200000*%
%ADD13C,1.200000*%
%ADD14R,1.800000X1.800000*%
%ADD15C,1.800000*%
%ADD16C,1.400000*%
%ADD17O,1.400000X1.400000*%
%ADD18R,1.600000X1.600000*%
%ADD19O,1.600000X1.600000*%
%ADD20C,1.500000*%
G04 APERTURE END LIST*
D10*
%TO.C,J5*%
X149860000Y-78740000D03*
D11*
X149860000Y-81280000D03*
%TD*%
%TO.C,J4*%
X120650000Y-90170000D03*
D10*
X120650000Y-87630000D03*
X120650000Y-85090000D03*
%TD*%
D12*
%TO.C,C1*%
X118110000Y-72390000D03*
D13*
X118110000Y-73890000D03*
%TD*%
%TO.C,C2*%
X118110000Y-78510000D03*
D12*
X118110000Y-80010000D03*
%TD*%
D14*
%TO.C,D1*%
X144780000Y-69850000D03*
D15*
X147320000Y-69850000D03*
%TD*%
D11*
%TO.C,J1*%
X149860000Y-100330000D03*
D10*
X149860000Y-97790000D03*
X149860000Y-95250000D03*
X149860000Y-92710000D03*
X149860000Y-90170000D03*
X149860000Y-87630000D03*
%TD*%
%TO.C,J2*%
X144780000Y-52070000D03*
X144780000Y-54610000D03*
X144780000Y-57150000D03*
X144780000Y-59690000D03*
X144780000Y-62230000D03*
D11*
X144780000Y-64770000D03*
%TD*%
%TO.C,J3*%
X119380000Y-49530000D03*
D10*
X119380000Y-52070000D03*
X119380000Y-54610000D03*
X119380000Y-57150000D03*
X119380000Y-59690000D03*
X119380000Y-62230000D03*
X119380000Y-64770000D03*
X119380000Y-67310000D03*
%TD*%
D16*
%TO.C,R1*%
X143510000Y-74930000D03*
D17*
X148590000Y-74930000D03*
%TD*%
%TO.C,R2*%
X149860000Y-64770000D03*
D16*
X149860000Y-59690000D03*
%TD*%
D18*
%TO.C,U1*%
X131935001Y-54915001D03*
D19*
X139555001Y-87935001D03*
X131935001Y-57455001D03*
X139555001Y-85395001D03*
X131935001Y-59995001D03*
X139555001Y-82855001D03*
X131935001Y-62535001D03*
X139555001Y-80315001D03*
X131935001Y-65075001D03*
X139555001Y-77775001D03*
X131935001Y-67615001D03*
X139555001Y-75235001D03*
X131935001Y-70155001D03*
X139555001Y-72695001D03*
X131935001Y-72695001D03*
X139555001Y-70155001D03*
X131935001Y-75235001D03*
X139555001Y-67615001D03*
X131935001Y-77775001D03*
X139555001Y-65075001D03*
X131935001Y-80315001D03*
X139555001Y-62535001D03*
X131935001Y-82855001D03*
X139555001Y-59995001D03*
X131935001Y-85395001D03*
X139555001Y-57455001D03*
X131935001Y-87935001D03*
X139555001Y-54915001D03*
%TD*%
D20*
%TO.C,Y1*%
X125730000Y-74930000D03*
X125730000Y-79830000D03*
%TD*%
M02*
