%TF.GenerationSoftware,KiCad,Pcbnew,5.99.0+really5.1.10+dfsg1-1*%
%TF.CreationDate,2021-11-28T15:47:42+05:30*%
%TF.ProjectId,atmega 08,61746d65-6761-4203-9038-2e6b69636164,rev?*%
%TF.SameCoordinates,Original*%
%TF.FileFunction,Copper,L2,Bot*%
%TF.FilePolarity,Positive*%
%FSLAX46Y46*%
G04 Gerber Fmt 4.6, Leading zero omitted, Abs format (unit mm)*
G04 Created by KiCad (PCBNEW 5.99.0+really5.1.10+dfsg1-1) date 2021-11-28 15:47:42*
%MOMM*%
%LPD*%
G01*
G04 APERTURE LIST*
%TA.AperFunction,NonConductor*%
%ADD10C,0.300000*%
%TD*%
%TA.AperFunction,ComponentPad*%
%ADD11O,1.700000X1.700000*%
%TD*%
%TA.AperFunction,ComponentPad*%
%ADD12R,1.700000X1.700000*%
%TD*%
%TA.AperFunction,ComponentPad*%
%ADD13R,1.200000X1.200000*%
%TD*%
%TA.AperFunction,ComponentPad*%
%ADD14C,1.200000*%
%TD*%
%TA.AperFunction,ComponentPad*%
%ADD15R,1.800000X1.800000*%
%TD*%
%TA.AperFunction,ComponentPad*%
%ADD16C,1.800000*%
%TD*%
%TA.AperFunction,ComponentPad*%
%ADD17C,1.400000*%
%TD*%
%TA.AperFunction,ComponentPad*%
%ADD18O,1.400000X1.400000*%
%TD*%
%TA.AperFunction,ComponentPad*%
%ADD19R,1.600000X1.600000*%
%TD*%
%TA.AperFunction,ComponentPad*%
%ADD20O,1.600000X1.600000*%
%TD*%
%TA.AperFunction,ComponentPad*%
%ADD21C,1.500000*%
%TD*%
%TA.AperFunction,Conductor*%
%ADD22C,1.500000*%
%TD*%
%TA.AperFunction,Conductor*%
%ADD23C,0.700000*%
%TD*%
%TA.AperFunction,Conductor*%
%ADD24C,0.250000*%
%TD*%
%TA.AperFunction,Conductor*%
%ADD25C,0.800000*%
%TD*%
%TA.AperFunction,Conductor*%
%ADD26C,1.000000*%
%TD*%
%TA.AperFunction,Conductor*%
%ADD27C,0.400000*%
%TD*%
%TA.AperFunction,Conductor*%
%ADD28C,0.100000*%
%TD*%
G04 APERTURE END LIST*
D10*
X134642857Y-100778571D02*
X134500000Y-100778571D01*
X134357142Y-100850000D01*
X134285714Y-100921428D01*
X134214285Y-101064285D01*
X134142857Y-101350000D01*
X134142857Y-101707142D01*
X134214285Y-101992857D01*
X134285714Y-102135714D01*
X134357142Y-102207142D01*
X134500000Y-102278571D01*
X134642857Y-102278571D01*
X134785714Y-102207142D01*
X134857142Y-102135714D01*
X134928571Y-101992857D01*
X135000000Y-101707142D01*
X135000000Y-101350000D01*
X134928571Y-101064285D01*
X134857142Y-100921428D01*
X134785714Y-100850000D01*
X134642857Y-100778571D01*
X133642857Y-100778571D02*
X132642857Y-100778571D01*
X133285714Y-102278571D01*
X131428571Y-100778571D02*
X131714285Y-100778571D01*
X131857142Y-100850000D01*
X131928571Y-100921428D01*
X132071428Y-101135714D01*
X132142857Y-101421428D01*
X132142857Y-101992857D01*
X132071428Y-102135714D01*
X132000000Y-102207142D01*
X131857142Y-102278571D01*
X131571428Y-102278571D01*
X131428571Y-102207142D01*
X131357142Y-102135714D01*
X131285714Y-101992857D01*
X131285714Y-101635714D01*
X131357142Y-101492857D01*
X131428571Y-101421428D01*
X131571428Y-101350000D01*
X131857142Y-101350000D01*
X132000000Y-101421428D01*
X132071428Y-101492857D01*
X132142857Y-101635714D01*
X129642857Y-100778571D02*
X128714285Y-100778571D01*
X129214285Y-101350000D01*
X129000000Y-101350000D01*
X128857142Y-101421428D01*
X128785714Y-101492857D01*
X128714285Y-101635714D01*
X128714285Y-101992857D01*
X128785714Y-102135714D01*
X128857142Y-102207142D01*
X129000000Y-102278571D01*
X129428571Y-102278571D01*
X129571428Y-102207142D01*
X129642857Y-102135714D01*
X128214285Y-100778571D02*
X127214285Y-100778571D01*
X127857142Y-102278571D01*
X126357142Y-100778571D02*
X126214285Y-100778571D01*
X126071428Y-100850000D01*
X126000000Y-100921428D01*
X125928571Y-101064285D01*
X125857142Y-101350000D01*
X125857142Y-101707142D01*
X125928571Y-101992857D01*
X126000000Y-102135714D01*
X126071428Y-102207142D01*
X126214285Y-102278571D01*
X126357142Y-102278571D01*
X126500000Y-102207142D01*
X126571428Y-102135714D01*
X126642857Y-101992857D01*
X126714285Y-101707142D01*
X126714285Y-101350000D01*
X126642857Y-101064285D01*
X126571428Y-100921428D01*
X126500000Y-100850000D01*
X126357142Y-100778571D01*
X125000000Y-101421428D02*
X125142857Y-101350000D01*
X125214285Y-101278571D01*
X125285714Y-101135714D01*
X125285714Y-101064285D01*
X125214285Y-100921428D01*
X125142857Y-100850000D01*
X125000000Y-100778571D01*
X124714285Y-100778571D01*
X124571428Y-100850000D01*
X124500000Y-100921428D01*
X124428571Y-101064285D01*
X124428571Y-101135714D01*
X124500000Y-101278571D01*
X124571428Y-101350000D01*
X124714285Y-101421428D01*
X125000000Y-101421428D01*
X125142857Y-101492857D01*
X125214285Y-101564285D01*
X125285714Y-101707142D01*
X125285714Y-101992857D01*
X125214285Y-102135714D01*
X125142857Y-102207142D01*
X125000000Y-102278571D01*
X124714285Y-102278571D01*
X124571428Y-102207142D01*
X124500000Y-102135714D01*
X124428571Y-101992857D01*
X124428571Y-101707142D01*
X124500000Y-101564285D01*
X124571428Y-101492857D01*
X124714285Y-101421428D01*
X123071428Y-100778571D02*
X123785714Y-100778571D01*
X123857142Y-101492857D01*
X123785714Y-101421428D01*
X123642857Y-101350000D01*
X123285714Y-101350000D01*
X123142857Y-101421428D01*
X123071428Y-101492857D01*
X123000000Y-101635714D01*
X123000000Y-101992857D01*
X123071428Y-102135714D01*
X123142857Y-102207142D01*
X123285714Y-102278571D01*
X123642857Y-102278571D01*
X123785714Y-102207142D01*
X123857142Y-102135714D01*
X122071428Y-100778571D02*
X121928571Y-100778571D01*
X121785714Y-100850000D01*
X121714285Y-100921428D01*
X121642857Y-101064285D01*
X121571428Y-101350000D01*
X121571428Y-101707142D01*
X121642857Y-101992857D01*
X121714285Y-102135714D01*
X121785714Y-102207142D01*
X121928571Y-102278571D01*
X122071428Y-102278571D01*
X122214285Y-102207142D01*
X122285714Y-102135714D01*
X122357142Y-101992857D01*
X122428571Y-101707142D01*
X122428571Y-101350000D01*
X122357142Y-101064285D01*
X122285714Y-100921428D01*
X122214285Y-100850000D01*
X122071428Y-100778571D01*
X120285714Y-101278571D02*
X120285714Y-102278571D01*
X120642857Y-100707142D02*
X121000000Y-101778571D01*
X120071428Y-101778571D01*
X136428571Y-98139047D02*
X136000000Y-98329523D01*
X135285714Y-98329523D01*
X135000000Y-98139047D01*
X134857142Y-97948571D01*
X134714285Y-97567619D01*
X134714285Y-97186666D01*
X134857142Y-96805714D01*
X135000000Y-96615238D01*
X135285714Y-96424761D01*
X135857142Y-96234285D01*
X136142857Y-96043809D01*
X136285714Y-95853333D01*
X136428571Y-95472380D01*
X136428571Y-95091428D01*
X136285714Y-94710476D01*
X136142857Y-94520000D01*
X135857142Y-94329523D01*
X135142857Y-94329523D01*
X134714285Y-94520000D01*
X133428571Y-98329523D02*
X133428571Y-94329523D01*
X131714285Y-98329523D02*
X133000000Y-96043809D01*
X131714285Y-94329523D02*
X133428571Y-96615238D01*
X130571428Y-98139047D02*
X130142857Y-98329523D01*
X129428571Y-98329523D01*
X129142857Y-98139047D01*
X129000000Y-97948571D01*
X128857142Y-97567619D01*
X128857142Y-97186666D01*
X129000000Y-96805714D01*
X129142857Y-96615238D01*
X129428571Y-96424761D01*
X130000000Y-96234285D01*
X130285714Y-96043809D01*
X130428571Y-95853333D01*
X130571428Y-95472380D01*
X130571428Y-95091428D01*
X130428571Y-94710476D01*
X130285714Y-94520000D01*
X130000000Y-94329523D01*
X129285714Y-94329523D01*
X128857142Y-94520000D01*
X125285714Y-98329523D02*
X125285714Y-94329523D01*
X124142857Y-94329523D01*
X123857142Y-94520000D01*
X123714285Y-94710476D01*
X123571428Y-95091428D01*
X123571428Y-95662857D01*
X123714285Y-96043809D01*
X123857142Y-96234285D01*
X124142857Y-96424761D01*
X125285714Y-96424761D01*
X120571428Y-97948571D02*
X120714285Y-98139047D01*
X121142857Y-98329523D01*
X121428571Y-98329523D01*
X121857142Y-98139047D01*
X122142857Y-97758095D01*
X122285714Y-97377142D01*
X122428571Y-96615238D01*
X122428571Y-96043809D01*
X122285714Y-95281904D01*
X122142857Y-94900952D01*
X121857142Y-94520000D01*
X121428571Y-94329523D01*
X121142857Y-94329523D01*
X120714285Y-94520000D01*
X120571428Y-94710476D01*
X118285714Y-96234285D02*
X117857142Y-96424761D01*
X117714285Y-96615238D01*
X117571428Y-96996190D01*
X117571428Y-97567619D01*
X117714285Y-97948571D01*
X117857142Y-98139047D01*
X118142857Y-98329523D01*
X119285714Y-98329523D01*
X119285714Y-94329523D01*
X118285714Y-94329523D01*
X118000000Y-94520000D01*
X117857142Y-94710476D01*
X117714285Y-95091428D01*
X117714285Y-95472380D01*
X117857142Y-95853333D01*
X118000000Y-96043809D01*
X118285714Y-96234285D01*
X119285714Y-96234285D01*
D11*
%TO.P,J5,2*%
%TO.N,GND*%
X149860000Y-78740000D03*
D12*
%TO.P,J5,1*%
%TO.N,+5V*%
X149860000Y-81280000D03*
%TD*%
%TO.P,J4,1*%
%TO.N,Net-(J4-Pad1)*%
X120650000Y-90170000D03*
D11*
%TO.P,J4,2*%
%TO.N,Net-(J4-Pad2)*%
X120650000Y-87630000D03*
%TO.P,J4,3*%
%TO.N,Net-(J4-Pad3)*%
X120650000Y-85090000D03*
%TD*%
D13*
%TO.P,C1,1*%
%TO.N,Net-(C1-Pad1)*%
X118110000Y-72390000D03*
D14*
%TO.P,C1,2*%
%TO.N,GND*%
X118110000Y-73890000D03*
%TD*%
%TO.P,C2,2*%
%TO.N,GND*%
X118110000Y-78510000D03*
D13*
%TO.P,C2,1*%
%TO.N,Net-(C2-Pad1)*%
X118110000Y-80010000D03*
%TD*%
D15*
%TO.P,D1,1*%
%TO.N,GND*%
X144780000Y-69850000D03*
D16*
%TO.P,D1,2*%
%TO.N,Net-(D1-Pad2)*%
X147320000Y-69850000D03*
%TD*%
D12*
%TO.P,J1,1*%
%TO.N,Net-(J1-Pad1)*%
X149860000Y-100330000D03*
D11*
%TO.P,J1,2*%
%TO.N,Net-(J1-Pad2)*%
X149860000Y-97790000D03*
%TO.P,J1,3*%
%TO.N,Net-(J1-Pad3)*%
X149860000Y-95250000D03*
%TO.P,J1,4*%
%TO.N,Net-(J1-Pad4)*%
X149860000Y-92710000D03*
%TO.P,J1,5*%
%TO.N,Net-(J1-Pad5)*%
X149860000Y-90170000D03*
%TO.P,J1,6*%
%TO.N,Net-(J1-Pad6)*%
X149860000Y-87630000D03*
%TD*%
%TO.P,J2,6*%
%TO.N,Net-(J2-Pad6)*%
X144780000Y-52070000D03*
%TO.P,J2,5*%
%TO.N,Net-(J2-Pad5)*%
X144780000Y-54610000D03*
%TO.P,J2,4*%
%TO.N,Net-(J2-Pad4)*%
X144780000Y-57150000D03*
%TO.P,J2,3*%
%TO.N,Net-(J2-Pad3)*%
X144780000Y-59690000D03*
%TO.P,J2,2*%
%TO.N,Net-(J2-Pad2)*%
X144780000Y-62230000D03*
D12*
%TO.P,J2,1*%
%TO.N,Net-(J2-Pad1)*%
X144780000Y-64770000D03*
%TD*%
%TO.P,J3,1*%
%TO.N,Net-(J3-Pad1)*%
X119380000Y-49530000D03*
D11*
%TO.P,J3,2*%
%TO.N,Net-(J3-Pad2)*%
X119380000Y-52070000D03*
%TO.P,J3,3*%
%TO.N,Net-(J3-Pad3)*%
X119380000Y-54610000D03*
%TO.P,J3,4*%
%TO.N,Net-(J3-Pad4)*%
X119380000Y-57150000D03*
%TO.P,J3,5*%
%TO.N,Net-(J3-Pad5)*%
X119380000Y-59690000D03*
%TO.P,J3,6*%
%TO.N,Net-(J3-Pad6)*%
X119380000Y-62230000D03*
%TO.P,J3,7*%
%TO.N,Net-(J3-Pad7)*%
X119380000Y-64770000D03*
%TO.P,J3,8*%
%TO.N,Net-(J3-Pad8)*%
X119380000Y-67310000D03*
%TD*%
D17*
%TO.P,R1,1*%
%TO.N,+5V*%
X143510000Y-74930000D03*
D18*
%TO.P,R1,2*%
%TO.N,Net-(R1-Pad2)*%
X148590000Y-74930000D03*
%TD*%
%TO.P,R2,2*%
%TO.N,Net-(D1-Pad2)*%
X149860000Y-64770000D03*
D17*
%TO.P,R2,1*%
%TO.N,Net-(J4-Pad3)*%
X149860000Y-59690000D03*
%TD*%
D19*
%TO.P,U1,1*%
%TO.N,Net-(R1-Pad2)*%
X131935001Y-54915001D03*
D20*
%TO.P,U1,15*%
%TO.N,Net-(J1-Pad2)*%
X139555001Y-87935001D03*
%TO.P,U1,2*%
%TO.N,Net-(J3-Pad1)*%
X131935001Y-57455001D03*
%TO.P,U1,16*%
%TO.N,Net-(J1-Pad3)*%
X139555001Y-85395001D03*
%TO.P,U1,3*%
%TO.N,Net-(J3-Pad2)*%
X131935001Y-59995001D03*
%TO.P,U1,17*%
%TO.N,Net-(J1-Pad4)*%
X139555001Y-82855001D03*
%TO.P,U1,4*%
%TO.N,Net-(J3-Pad3)*%
X131935001Y-62535001D03*
%TO.P,U1,18*%
%TO.N,Net-(J1-Pad5)*%
X139555001Y-80315001D03*
%TO.P,U1,5*%
%TO.N,Net-(J3-Pad4)*%
X131935001Y-65075001D03*
%TO.P,U1,19*%
%TO.N,Net-(J1-Pad6)*%
X139555001Y-77775001D03*
%TO.P,U1,6*%
%TO.N,Net-(J3-Pad5)*%
X131935001Y-67615001D03*
%TO.P,U1,20*%
%TO.N,+5V*%
X139555001Y-75235001D03*
%TO.P,U1,7*%
X131935001Y-70155001D03*
%TO.P,U1,21*%
%TO.N,Net-(U1-Pad21)*%
X139555001Y-72695001D03*
%TO.P,U1,8*%
%TO.N,GND*%
X131935001Y-72695001D03*
%TO.P,U1,22*%
X139555001Y-70155001D03*
%TO.P,U1,9*%
%TO.N,Net-(C1-Pad1)*%
X131935001Y-75235001D03*
%TO.P,U1,23*%
%TO.N,Net-(J2-Pad1)*%
X139555001Y-67615001D03*
%TO.P,U1,10*%
%TO.N,Net-(C2-Pad1)*%
X131935001Y-77775001D03*
%TO.P,U1,24*%
%TO.N,Net-(J2-Pad2)*%
X139555001Y-65075001D03*
%TO.P,U1,11*%
%TO.N,Net-(J4-Pad3)*%
X131935001Y-80315001D03*
%TO.P,U1,25*%
%TO.N,Net-(J2-Pad3)*%
X139555001Y-62535001D03*
%TO.P,U1,12*%
%TO.N,Net-(J4-Pad2)*%
X131935001Y-82855001D03*
%TO.P,U1,26*%
%TO.N,Net-(J2-Pad4)*%
X139555001Y-59995001D03*
%TO.P,U1,13*%
%TO.N,Net-(J4-Pad1)*%
X131935001Y-85395001D03*
%TO.P,U1,27*%
%TO.N,Net-(J2-Pad5)*%
X139555001Y-57455001D03*
%TO.P,U1,14*%
%TO.N,Net-(J1-Pad1)*%
X131935001Y-87935001D03*
%TO.P,U1,28*%
%TO.N,Net-(J2-Pad6)*%
X139555001Y-54915001D03*
%TD*%
D21*
%TO.P,Y1,1*%
%TO.N,Net-(C1-Pad1)*%
X125730000Y-74930000D03*
%TO.P,Y1,2*%
%TO.N,Net-(C2-Pad1)*%
X125730000Y-79830000D03*
%TD*%
D22*
%TO.N,Net-(C1-Pad1)*%
X131630000Y-74930000D02*
X131935001Y-75235001D01*
X125730000Y-74930000D02*
X131630000Y-74930000D01*
X124460000Y-74930000D02*
X121920000Y-72390000D01*
X125730000Y-74930000D02*
X124460000Y-74930000D01*
D23*
X118110000Y-72390000D02*
X121920000Y-72390000D01*
D22*
X118854001Y-72339999D02*
X118110000Y-72339999D01*
X118904002Y-72390000D02*
X118854001Y-72339999D01*
X121920000Y-72390000D02*
X118904002Y-72390000D01*
D23*
%TO.N,GND*%
X144474999Y-70155001D02*
X144780000Y-69850000D01*
X139555001Y-70155001D02*
X144474999Y-70155001D01*
D24*
X131630000Y-72390000D02*
X131935001Y-72695001D01*
X115570000Y-72198528D02*
X115570000Y-71120000D01*
X115570000Y-71120000D02*
X116840000Y-69850000D01*
D23*
X118110000Y-73890000D02*
X118110000Y-76200000D01*
X115795000Y-70895000D02*
X116840000Y-69850000D01*
X115795000Y-73885000D02*
X115795000Y-70895000D01*
X118110000Y-76200000D02*
X115795000Y-73885000D01*
X131689992Y-72940010D02*
X131935001Y-72695001D01*
X125730000Y-69850000D02*
X116840000Y-69850000D01*
X136195001Y-70155001D02*
X135070000Y-69030000D01*
X139555001Y-70155001D02*
X136195001Y-70155001D01*
X135070000Y-69030000D02*
X134170000Y-69030000D01*
D24*
X134170000Y-69030000D02*
X130360000Y-69030000D01*
D23*
X129540000Y-72390000D02*
X128989990Y-72940010D01*
X128989990Y-72940010D02*
X131689992Y-72940010D01*
X128820010Y-72940010D02*
X128989990Y-72940010D01*
X127000000Y-69850000D02*
X129540000Y-69850000D01*
X128270000Y-71120000D02*
X128270000Y-69850000D01*
X128270000Y-69850000D02*
X129540000Y-69850000D01*
X127000000Y-71120000D02*
X127635000Y-70485000D01*
X127000000Y-69850000D02*
X127635000Y-70485000D01*
X127000000Y-69850000D02*
X129540000Y-72390000D01*
X128270000Y-71120000D02*
X127000000Y-71120000D01*
X127000000Y-69850000D02*
X127000000Y-71120000D01*
X128270000Y-69850000D02*
X127635000Y-70485000D01*
X125730000Y-69850000D02*
X127000000Y-69850000D01*
X129540000Y-69850000D02*
X129540000Y-71120000D01*
X128270000Y-71120000D02*
X129540000Y-71120000D01*
X129540000Y-71120000D02*
X128905000Y-70485000D01*
X128905000Y-70485000D02*
X128270000Y-71120000D01*
X129540000Y-69850000D02*
X128905000Y-70485000D01*
X128270000Y-69850000D02*
X128905000Y-70485000D01*
X129540000Y-72390000D02*
X129540000Y-71120000D01*
X128270000Y-71120000D02*
X127635000Y-71755000D01*
X127635000Y-71755000D02*
X127000000Y-71120000D01*
X128270000Y-72390000D02*
X127635000Y-71755000D01*
X128270000Y-71120000D02*
X128270000Y-72390000D01*
X129540000Y-71120000D02*
X128905000Y-71755000D01*
X128905000Y-71755000D02*
X128270000Y-71120000D01*
X129540000Y-72390000D02*
X128905000Y-71755000D01*
X129540000Y-72390000D02*
X128270000Y-72390000D01*
X127635000Y-70485000D02*
X126365000Y-70485000D01*
X128270000Y-71120000D02*
X127635000Y-70485000D01*
X126365000Y-70485000D02*
X128820010Y-72940010D01*
X125730000Y-69850000D02*
X126365000Y-70485000D01*
X128905000Y-71755000D02*
X128270000Y-72390000D01*
X129540000Y-69850000D02*
X129540000Y-72390000D01*
X129540000Y-72390000D02*
X128270000Y-71120000D01*
D22*
X118110000Y-77470000D02*
X118110000Y-74040009D01*
D23*
X118110000Y-76200000D02*
X118110000Y-77470000D01*
X118110000Y-77470000D02*
X118110000Y-78510000D01*
D22*
X118110000Y-77470000D02*
X118110000Y-78359991D01*
D24*
X130360000Y-69030000D02*
X129540000Y-69850000D01*
D22*
X149860000Y-78740000D02*
X147320000Y-78740000D01*
X147320000Y-78740000D02*
X146050000Y-77470000D01*
X146050000Y-73660000D02*
X144780000Y-72390000D01*
X146050000Y-77470000D02*
X146050000Y-73660000D01*
X144780000Y-72390000D02*
X144780000Y-69850000D01*
D23*
%TO.N,Net-(C2-Pad1)*%
X118110000Y-80010000D02*
X118110000Y-81280000D01*
D22*
X127784999Y-77775001D02*
X125730000Y-79830000D01*
X131935001Y-77775001D02*
X127784999Y-77775001D01*
X125730000Y-79830000D02*
X123100000Y-82460000D01*
D23*
X123010000Y-82550000D02*
X123100000Y-82460000D01*
D22*
X123010000Y-82550000D02*
X119380000Y-82550000D01*
X119380000Y-82550000D02*
X118110000Y-81280000D01*
X118110000Y-81280000D02*
X118110000Y-80060001D01*
D23*
%TO.N,Net-(D1-Pad2)*%
X147320000Y-69850000D02*
X147320000Y-66040000D01*
X147320000Y-66040000D02*
X148590000Y-64770000D01*
X148590000Y-64770000D02*
X149860000Y-64770000D01*
D22*
%TO.N,Net-(J1-Pad1)*%
X133655001Y-87935001D02*
X139700000Y-93980000D01*
X139700000Y-97790000D02*
X142240000Y-100330000D01*
X139700000Y-93980000D02*
X139700000Y-97790000D01*
X142240000Y-100330000D02*
X149860000Y-100330000D01*
X133655001Y-87935001D02*
X131935001Y-87935001D01*
%TO.N,Net-(J1-Pad2)*%
X146050000Y-97790000D02*
X149860000Y-97790000D01*
X143510000Y-95250000D02*
X146050000Y-97790000D01*
X143510000Y-93980000D02*
X143510000Y-95250000D01*
X139555001Y-90025001D02*
X143510000Y-93980000D01*
X139555001Y-87935001D02*
X139555001Y-90025001D01*
D23*
%TO.N,Net-(J1-Pad3)*%
X148657919Y-95250000D02*
X143510000Y-90102081D01*
X149860000Y-95250000D02*
X148657919Y-95250000D01*
X143510000Y-90102081D02*
X143510000Y-87630000D01*
X143510000Y-87630000D02*
X141275001Y-85395001D01*
X141275001Y-85395001D02*
X139555001Y-85395001D01*
%TO.N,Net-(J1-Pad4)*%
X144780000Y-86360000D02*
X141275001Y-82855001D01*
X141275001Y-82855001D02*
X139555001Y-82855001D01*
X144780000Y-88900000D02*
X144780000Y-86360000D01*
X148590000Y-92710000D02*
X144780000Y-88900000D01*
X149860000Y-92710000D02*
X148590000Y-92710000D01*
%TO.N,Net-(J1-Pad5)*%
X139555001Y-80315001D02*
X141275001Y-80315001D01*
D22*
X146685000Y-88197081D02*
X146685000Y-85725000D01*
X148657919Y-90170000D02*
X146685000Y-88197081D01*
X149860000Y-90170000D02*
X148657919Y-90170000D01*
X146685000Y-85725000D02*
X146050000Y-85090000D01*
D23*
X141275001Y-80315001D02*
X146050000Y-85090000D01*
%TO.N,Net-(J1-Pad6)*%
X141275001Y-77775001D02*
X139555001Y-77775001D01*
X147320000Y-83820000D02*
X141275001Y-77775001D01*
X148590000Y-83820000D02*
X147320000Y-83820000D01*
D22*
X149860000Y-85090000D02*
X148590000Y-83820000D01*
X149860000Y-87630000D02*
X149860000Y-85090000D01*
D25*
%TO.N,Net-(J2-Pad6)*%
X139555001Y-54915001D02*
X139555001Y-53484999D01*
X140970000Y-52070000D02*
X144780000Y-52070000D01*
X139555001Y-53484999D02*
X140970000Y-52070000D01*
D26*
%TO.N,Net-(J2-Pad5)*%
X141934999Y-57455001D02*
X144780000Y-54610000D01*
X139555001Y-57455001D02*
X141934999Y-57455001D01*
%TO.N,Net-(J2-Pad4)*%
X141934999Y-59995001D02*
X144780000Y-57150000D01*
X139555001Y-59995001D02*
X141934999Y-59995001D01*
%TO.N,Net-(J2-Pad3)*%
X141934999Y-62535001D02*
X144780000Y-59690000D01*
X139555001Y-62535001D02*
X141934999Y-62535001D01*
%TO.N,Net-(J2-Pad2)*%
X144359998Y-62230000D02*
X144780000Y-62230000D01*
X141514997Y-65075001D02*
X144359998Y-62230000D01*
X139555001Y-65075001D02*
X141514997Y-65075001D01*
%TO.N,Net-(J2-Pad1)*%
X141934999Y-67615001D02*
X144780000Y-64770000D01*
X139555001Y-67615001D02*
X141934999Y-67615001D01*
D23*
%TO.N,Net-(J3-Pad1)*%
X129540000Y-57150000D02*
X129845001Y-57455001D01*
D26*
X129845001Y-57455001D02*
X128270000Y-55880000D01*
X131935001Y-57455001D02*
X129845001Y-57455001D01*
D22*
X125730000Y-49530000D02*
X128270000Y-52070000D01*
X119380000Y-49530000D02*
X125730000Y-49530000D01*
X128270000Y-55880000D02*
X129540000Y-57150000D01*
X128270000Y-52070000D02*
X128270000Y-55880000D01*
D26*
X129540000Y-57150000D02*
X131630000Y-57150000D01*
X131630000Y-57150000D02*
X131935001Y-57455001D01*
%TO.N,Net-(J3-Pad2)*%
X125730000Y-53340000D02*
X124460000Y-52070000D01*
X125730000Y-57150000D02*
X125730000Y-53340000D01*
X124460000Y-52070000D02*
X119380000Y-52070000D01*
X128575001Y-59995001D02*
X125730000Y-57150000D01*
X131935001Y-59995001D02*
X128575001Y-59995001D01*
D23*
%TO.N,Net-(J3-Pad3)*%
X119380000Y-54610000D02*
X123190000Y-54610000D01*
X123190000Y-54610000D02*
X124460000Y-55880000D01*
X124460000Y-55880000D02*
X124460000Y-59690000D01*
X127305001Y-62535001D02*
X131935001Y-62535001D01*
X124460000Y-59690000D02*
X127305001Y-62535001D01*
D26*
%TO.N,Net-(J3-Pad4)*%
X119380000Y-57150000D02*
X121920000Y-57150000D01*
D23*
X123190000Y-58420000D02*
X123190000Y-60960000D01*
X123190000Y-58420000D02*
X122555000Y-57785000D01*
D26*
X121920000Y-57150000D02*
X122555000Y-57785000D01*
D22*
X131935001Y-65075001D02*
X127305001Y-65075001D01*
X127305001Y-65075001D02*
X126365000Y-64135000D01*
D23*
X123190000Y-60960000D02*
X126365000Y-64135000D01*
D25*
%TO.N,Net-(J3-Pad5)*%
X120650000Y-59690000D02*
X121920000Y-60960000D01*
X119380000Y-59690000D02*
X120650000Y-59690000D01*
X121920000Y-60960000D02*
X121920000Y-63500000D01*
D26*
X131935001Y-67615001D02*
X130504999Y-67615001D01*
D23*
X126035001Y-67615001D02*
X122555000Y-64135000D01*
D25*
X121920000Y-63500000D02*
X122555000Y-64135000D01*
D22*
X126035001Y-67615001D02*
X125730000Y-67310000D01*
X130504999Y-67615001D02*
X126035001Y-67615001D01*
X131935001Y-67615001D02*
X126035001Y-67615001D01*
X126035001Y-67615001D02*
X124460000Y-66040000D01*
D25*
X124460000Y-66040000D02*
X125730000Y-67310000D01*
X122555000Y-64135000D02*
X124460000Y-66040000D01*
%TO.N,Net-(J4-Pad1)*%
X130504999Y-85395001D02*
X131935001Y-85395001D01*
D22*
X125070002Y-90170000D02*
X129845001Y-85395001D01*
X120650000Y-90170000D02*
X125070002Y-90170000D01*
D23*
X130504999Y-85395001D02*
X129845001Y-85395001D01*
D22*
X129845001Y-85395001D02*
X131935001Y-85395001D01*
%TO.N,+5V*%
X139860002Y-74930000D02*
X139555001Y-75235001D01*
X143510000Y-74930000D02*
X139860002Y-74930000D01*
D26*
X139555001Y-75235001D02*
X136195001Y-75235001D01*
X136195001Y-75235001D02*
X135890000Y-74930000D01*
X135890000Y-74930000D02*
X135890000Y-72390000D01*
X133655001Y-70155001D02*
X131935001Y-70155001D01*
X135890000Y-72390000D02*
X133655001Y-70155001D01*
D23*
X149860000Y-81280000D02*
X147320000Y-81280000D01*
X143510000Y-77470000D02*
X143510000Y-74930000D01*
X147320000Y-81280000D02*
X143510000Y-77470000D01*
D22*
X149860000Y-81280000D02*
X148590000Y-81280000D01*
%TO.N,Net-(R1-Pad2)*%
X146050000Y-49530000D02*
X133350000Y-49530000D01*
X131935001Y-50944999D02*
X131935001Y-54915001D01*
X133350000Y-49530000D02*
X131935001Y-50944999D01*
X147320000Y-50800000D02*
X146050000Y-49530000D01*
X148590000Y-62230000D02*
X147320000Y-60960000D01*
X151130000Y-62230000D02*
X148590000Y-62230000D01*
X147320000Y-60960000D02*
X147320000Y-50800000D01*
X148590000Y-74930000D02*
X148590000Y-72390000D01*
X148590000Y-72390000D02*
X152400000Y-68580000D01*
X152400000Y-68580000D02*
X152400000Y-63500000D01*
X152400000Y-63500000D02*
X151130000Y-62230000D01*
D23*
%TO.N,Net-(J4-Pad2)*%
X129234999Y-82855001D02*
X131115001Y-82855001D01*
X124460000Y-87630000D02*
X129234999Y-82855001D01*
D25*
X131115001Y-82855001D02*
X131935001Y-82855001D01*
X130504999Y-82855001D02*
X131115001Y-82855001D01*
D22*
X120650000Y-87630000D02*
X121920000Y-87630000D01*
D23*
X121920000Y-87630000D02*
X124460000Y-87630000D01*
%TO.N,Net-(J4-Pad3)*%
X131935001Y-80856999D02*
X131935001Y-80315001D01*
D25*
X130504999Y-80315001D02*
X131935001Y-80315001D01*
D23*
X129234999Y-80315001D02*
X130504999Y-80315001D01*
D22*
X131935001Y-80315001D02*
X129234999Y-80315001D01*
X124460000Y-85090000D02*
X120650000Y-85090000D01*
X129234999Y-80315001D02*
X124460000Y-85090000D01*
X114300000Y-50800000D02*
X118110000Y-46990000D01*
X114300000Y-81280000D02*
X114300000Y-50800000D01*
X118110000Y-85090000D02*
X114300000Y-81280000D01*
X120650000Y-85090000D02*
X118110000Y-85090000D01*
X118110000Y-46990000D02*
X148590000Y-46990000D01*
X149860000Y-48260000D02*
X149860000Y-59690000D01*
X148590000Y-46990000D02*
X149860000Y-48260000D01*
%TD*%
D27*
%TO.N,GND*%
X153615000Y-61815864D02*
X152650792Y-60851655D01*
X152586583Y-60773417D01*
X152274430Y-60517240D01*
X151918297Y-60326883D01*
X151818254Y-60296535D01*
X151880338Y-60091870D01*
X151910000Y-59790709D01*
X151910000Y-48360708D01*
X151919919Y-48259999D01*
X151880338Y-47858129D01*
X151810190Y-47626883D01*
X151763117Y-47471703D01*
X151572760Y-47115570D01*
X151316583Y-46803417D01*
X151238349Y-46739212D01*
X150110792Y-45611655D01*
X150046583Y-45533417D01*
X149734430Y-45277240D01*
X149378297Y-45086883D01*
X148991870Y-44969662D01*
X148690709Y-44940000D01*
X148690708Y-44940000D01*
X148590000Y-44930081D01*
X148489292Y-44940000D01*
X118210709Y-44940000D01*
X118110000Y-44930081D01*
X118009291Y-44940000D01*
X117708130Y-44969662D01*
X117321703Y-45086883D01*
X116965570Y-45277240D01*
X116653417Y-45533417D01*
X116589217Y-45611645D01*
X112921651Y-49279213D01*
X112843418Y-49343417D01*
X112587241Y-49655570D01*
X112509737Y-49800570D01*
X112396883Y-50011704D01*
X112279662Y-50398131D01*
X112240081Y-50800000D01*
X112250001Y-50900718D01*
X112250000Y-81179292D01*
X112240081Y-81280000D01*
X112250000Y-81380708D01*
X112279662Y-81681869D01*
X112396883Y-82068296D01*
X112587240Y-82424430D01*
X112843417Y-82736583D01*
X112921656Y-82800792D01*
X116589217Y-86468355D01*
X116653417Y-86546583D01*
X116965570Y-86802760D01*
X117284432Y-86973195D01*
X117321703Y-86993117D01*
X117708130Y-87110338D01*
X118110000Y-87149919D01*
X118210709Y-87140000D01*
X118555346Y-87140000D01*
X118500000Y-87418243D01*
X118500000Y-87841757D01*
X118582623Y-88257132D01*
X118719448Y-88587455D01*
X118713860Y-88594264D01*
X118593145Y-88820104D01*
X118518810Y-89065155D01*
X118493710Y-89320000D01*
X118493710Y-91020000D01*
X118518810Y-91274845D01*
X118593145Y-91519896D01*
X118713860Y-91745736D01*
X118876313Y-91943687D01*
X119074264Y-92106140D01*
X119300104Y-92226855D01*
X119425852Y-92265000D01*
X115550000Y-92265000D01*
X115550000Y-101165000D01*
X117264286Y-101165000D01*
X117264286Y-104295000D01*
X136735715Y-104295000D01*
X136735715Y-101165000D01*
X138450000Y-101165000D01*
X138450000Y-99439136D01*
X140719217Y-101708355D01*
X140783417Y-101786583D01*
X141095570Y-102042760D01*
X141451703Y-102233117D01*
X141720908Y-102314779D01*
X141838129Y-102350338D01*
X142239999Y-102389919D01*
X142340708Y-102380000D01*
X148497279Y-102380000D01*
X148510104Y-102386855D01*
X148755155Y-102461190D01*
X149010000Y-102486290D01*
X150710000Y-102486290D01*
X150964845Y-102461190D01*
X151209896Y-102386855D01*
X151435736Y-102266140D01*
X151633687Y-102103687D01*
X151796140Y-101905736D01*
X151916855Y-101679896D01*
X151991190Y-101434845D01*
X152016290Y-101180000D01*
X152016290Y-99480000D01*
X151991190Y-99225155D01*
X151916855Y-98980104D01*
X151796140Y-98754264D01*
X151790552Y-98747455D01*
X151927377Y-98417132D01*
X152010000Y-98001757D01*
X152010000Y-97578243D01*
X151927377Y-97162868D01*
X151765305Y-96771593D01*
X151597196Y-96520000D01*
X151765305Y-96268407D01*
X151927377Y-95877132D01*
X152010000Y-95461757D01*
X152010000Y-95038243D01*
X151927377Y-94622868D01*
X151765305Y-94231593D01*
X151597196Y-93980000D01*
X151765305Y-93728407D01*
X151927377Y-93337132D01*
X152010000Y-92921757D01*
X152010000Y-92498243D01*
X151927377Y-92082868D01*
X151765305Y-91691593D01*
X151597196Y-91440000D01*
X151765305Y-91188407D01*
X151927377Y-90797132D01*
X152010000Y-90381757D01*
X152010000Y-89958243D01*
X151927377Y-89542868D01*
X151765305Y-89151593D01*
X151597196Y-88900000D01*
X151765305Y-88648407D01*
X151927377Y-88257132D01*
X152010000Y-87841757D01*
X152010000Y-87418243D01*
X151927377Y-87002868D01*
X151910000Y-86960916D01*
X151910000Y-85190708D01*
X151919919Y-85089999D01*
X151880338Y-84688129D01*
X151829312Y-84519919D01*
X151763117Y-84301703D01*
X151572760Y-83945570D01*
X151316583Y-83633417D01*
X151238349Y-83569212D01*
X151053449Y-83384312D01*
X151209896Y-83336855D01*
X151435736Y-83216140D01*
X151633687Y-83053687D01*
X151796140Y-82855736D01*
X151916855Y-82629896D01*
X151991190Y-82384845D01*
X152016290Y-82130000D01*
X152016290Y-80430000D01*
X151991190Y-80175155D01*
X151916855Y-79930104D01*
X151796140Y-79704264D01*
X151633687Y-79506313D01*
X151435736Y-79343860D01*
X151316059Y-79279891D01*
X151386650Y-79050982D01*
X151389446Y-79036914D01*
X151239944Y-78794000D01*
X149914000Y-78794000D01*
X149914000Y-78814000D01*
X149806000Y-78814000D01*
X149806000Y-78794000D01*
X148480056Y-78794000D01*
X148330554Y-79036914D01*
X148333350Y-79050982D01*
X148391525Y-79239629D01*
X148188130Y-79259662D01*
X147801703Y-79376883D01*
X147768228Y-79394776D01*
X146816538Y-78443086D01*
X148330554Y-78443086D01*
X148480056Y-78686000D01*
X149806000Y-78686000D01*
X149806000Y-77359934D01*
X149914000Y-77359934D01*
X149914000Y-78686000D01*
X151239944Y-78686000D01*
X151389446Y-78443086D01*
X151386650Y-78429018D01*
X151296646Y-78137159D01*
X151151433Y-77868467D01*
X150956591Y-77633267D01*
X150719607Y-77440598D01*
X150449589Y-77297865D01*
X150156914Y-77210552D01*
X149914000Y-77359934D01*
X149806000Y-77359934D01*
X149563086Y-77210552D01*
X149270411Y-77297865D01*
X149000393Y-77440598D01*
X148763409Y-77633267D01*
X148568567Y-77868467D01*
X148423354Y-78137159D01*
X148333350Y-78429018D01*
X148330554Y-78443086D01*
X146816538Y-78443086D01*
X145160000Y-76786549D01*
X145160000Y-76150903D01*
X145222760Y-76074430D01*
X145413117Y-75718297D01*
X145530338Y-75331870D01*
X145569919Y-74930000D01*
X145530338Y-74528130D01*
X145413117Y-74141703D01*
X145222760Y-73785570D01*
X144966583Y-73473417D01*
X144654430Y-73217240D01*
X144298297Y-73026883D01*
X143911870Y-72909662D01*
X143610709Y-72880000D01*
X141655001Y-72880000D01*
X141655001Y-72488169D01*
X141574299Y-72082454D01*
X141415997Y-71700278D01*
X141186178Y-71356329D01*
X140893673Y-71063824D01*
X140801652Y-71002338D01*
X140805958Y-70997128D01*
X140939150Y-70750000D01*
X143168574Y-70750000D01*
X143182244Y-70888792D01*
X143222728Y-71022251D01*
X143288471Y-71145247D01*
X143376946Y-71253054D01*
X143484753Y-71341529D01*
X143607749Y-71407272D01*
X143741208Y-71447756D01*
X143880000Y-71461426D01*
X144549000Y-71458000D01*
X144726000Y-71281000D01*
X144726000Y-69904000D01*
X143349000Y-69904000D01*
X143172000Y-70081000D01*
X143168574Y-70750000D01*
X140939150Y-70750000D01*
X140946212Y-70736897D01*
X141033003Y-70454304D01*
X141035032Y-70444088D01*
X140884905Y-70209001D01*
X139609001Y-70209001D01*
X139609001Y-70229001D01*
X139501001Y-70229001D01*
X139501001Y-70209001D01*
X138225097Y-70209001D01*
X138074970Y-70444088D01*
X138076999Y-70454304D01*
X138163790Y-70736897D01*
X138304044Y-70997128D01*
X138308350Y-71002338D01*
X138216329Y-71063824D01*
X137923824Y-71356329D01*
X137694005Y-71700278D01*
X137617672Y-71884563D01*
X137561029Y-71697837D01*
X137393887Y-71385135D01*
X137168950Y-71111050D01*
X137100267Y-71054683D01*
X134990322Y-68944739D01*
X134933951Y-68876051D01*
X134659866Y-68651114D01*
X134347164Y-68483972D01*
X134007863Y-68381046D01*
X133895310Y-68369960D01*
X133954299Y-68227548D01*
X134035001Y-67821833D01*
X134035001Y-67408169D01*
X133954299Y-67002454D01*
X133795997Y-66620278D01*
X133612063Y-66345001D01*
X133795997Y-66069724D01*
X133954299Y-65687548D01*
X134035001Y-65281833D01*
X134035001Y-64868169D01*
X133954299Y-64462454D01*
X133795997Y-64080278D01*
X133612063Y-63805001D01*
X133795997Y-63529724D01*
X133954299Y-63147548D01*
X134035001Y-62741833D01*
X134035001Y-62328169D01*
X133954299Y-61922454D01*
X133795997Y-61540278D01*
X133612063Y-61265001D01*
X133795997Y-60989724D01*
X133954299Y-60607548D01*
X134035001Y-60201833D01*
X134035001Y-59788169D01*
X133954299Y-59382454D01*
X133795997Y-59000278D01*
X133612063Y-58725001D01*
X133795997Y-58449724D01*
X133954299Y-58067548D01*
X134035001Y-57661833D01*
X134035001Y-57248169D01*
X133954299Y-56842454D01*
X133799052Y-56467653D01*
X133821141Y-56440737D01*
X133941856Y-56214897D01*
X134016191Y-55969846D01*
X134041291Y-55715001D01*
X134041291Y-54115001D01*
X134016191Y-53860156D01*
X133985001Y-53757336D01*
X133985001Y-51794136D01*
X134199137Y-51580000D01*
X139055837Y-51580000D01*
X138411962Y-52223875D01*
X138347105Y-52277102D01*
X138293878Y-52341959D01*
X138293869Y-52341968D01*
X138134664Y-52535960D01*
X138013757Y-52762163D01*
X137976808Y-52831290D01*
X137879599Y-53151741D01*
X137855001Y-53401489D01*
X137855001Y-53401499D01*
X137846777Y-53484999D01*
X137855001Y-53568499D01*
X137855001Y-53679330D01*
X137694005Y-53920278D01*
X137535703Y-54302454D01*
X137455001Y-54708169D01*
X137455001Y-55121833D01*
X137535703Y-55527548D01*
X137694005Y-55909724D01*
X137877939Y-56185001D01*
X137694005Y-56460278D01*
X137535703Y-56842454D01*
X137455001Y-57248169D01*
X137455001Y-57661833D01*
X137535703Y-58067548D01*
X137694005Y-58449724D01*
X137877939Y-58725001D01*
X137694005Y-59000278D01*
X137535703Y-59382454D01*
X137455001Y-59788169D01*
X137455001Y-60201833D01*
X137535703Y-60607548D01*
X137694005Y-60989724D01*
X137877939Y-61265001D01*
X137694005Y-61540278D01*
X137535703Y-61922454D01*
X137455001Y-62328169D01*
X137455001Y-62741833D01*
X137535703Y-63147548D01*
X137694005Y-63529724D01*
X137877939Y-63805001D01*
X137694005Y-64080278D01*
X137535703Y-64462454D01*
X137455001Y-64868169D01*
X137455001Y-65281833D01*
X137535703Y-65687548D01*
X137694005Y-66069724D01*
X137877939Y-66345001D01*
X137694005Y-66620278D01*
X137535703Y-67002454D01*
X137455001Y-67408169D01*
X137455001Y-67821833D01*
X137535703Y-68227548D01*
X137694005Y-68609724D01*
X137923824Y-68953673D01*
X138216329Y-69246178D01*
X138308350Y-69307664D01*
X138304044Y-69312874D01*
X138163790Y-69573105D01*
X138076999Y-69855698D01*
X138074970Y-69865914D01*
X138225097Y-70101001D01*
X139501001Y-70101001D01*
X139501001Y-70081001D01*
X139609001Y-70081001D01*
X139609001Y-70101001D01*
X140884905Y-70101001D01*
X141035032Y-69865914D01*
X141033003Y-69855698D01*
X140946212Y-69573105D01*
X140861000Y-69415001D01*
X141846583Y-69415001D01*
X141934999Y-69423709D01*
X142023415Y-69415001D01*
X142023423Y-69415001D01*
X142287861Y-69388956D01*
X142627162Y-69286030D01*
X142939864Y-69118888D01*
X143170590Y-68929535D01*
X143168574Y-68950000D01*
X143172000Y-69619000D01*
X143349000Y-69796000D01*
X144726000Y-69796000D01*
X144726000Y-68419000D01*
X144549000Y-68242000D01*
X143880000Y-68238574D01*
X143854497Y-68241086D01*
X145169294Y-66926290D01*
X145630000Y-66926290D01*
X145670001Y-66922350D01*
X145670000Y-68238625D01*
X145011000Y-68242000D01*
X144834000Y-68419000D01*
X144834000Y-69796000D01*
X144854000Y-69796000D01*
X144854000Y-69904000D01*
X144834000Y-69904000D01*
X144834000Y-71281000D01*
X145011000Y-71458000D01*
X145680000Y-71461426D01*
X145807589Y-71448859D01*
X145917582Y-71558852D01*
X146277909Y-71799615D01*
X146587898Y-71928016D01*
X146569662Y-71988131D01*
X146530081Y-72390000D01*
X146540001Y-72490718D01*
X146540000Y-75030708D01*
X146569662Y-75331869D01*
X146686883Y-75718296D01*
X146877240Y-76074430D01*
X147133417Y-76386583D01*
X147445570Y-76642760D01*
X147801703Y-76833117D01*
X148188130Y-76950338D01*
X148590000Y-76989919D01*
X148991869Y-76950338D01*
X149378296Y-76833117D01*
X149734430Y-76642760D01*
X150046583Y-76386583D01*
X150302760Y-76074430D01*
X150493117Y-75718297D01*
X150610338Y-75331870D01*
X150640000Y-75030709D01*
X150640000Y-73239136D01*
X153615000Y-70264137D01*
X153615001Y-105355000D01*
X111815000Y-105355000D01*
X111815000Y-43235000D01*
X153615000Y-43235000D01*
X153615000Y-61815864D01*
%TA.AperFunction,Conductor*%
D28*
G36*
X153615000Y-61815864D02*
G01*
X152650792Y-60851655D01*
X152586583Y-60773417D01*
X152274430Y-60517240D01*
X151918297Y-60326883D01*
X151818254Y-60296535D01*
X151880338Y-60091870D01*
X151910000Y-59790709D01*
X151910000Y-48360708D01*
X151919919Y-48259999D01*
X151880338Y-47858129D01*
X151810190Y-47626883D01*
X151763117Y-47471703D01*
X151572760Y-47115570D01*
X151316583Y-46803417D01*
X151238349Y-46739212D01*
X150110792Y-45611655D01*
X150046583Y-45533417D01*
X149734430Y-45277240D01*
X149378297Y-45086883D01*
X148991870Y-44969662D01*
X148690709Y-44940000D01*
X148690708Y-44940000D01*
X148590000Y-44930081D01*
X148489292Y-44940000D01*
X118210709Y-44940000D01*
X118110000Y-44930081D01*
X118009291Y-44940000D01*
X117708130Y-44969662D01*
X117321703Y-45086883D01*
X116965570Y-45277240D01*
X116653417Y-45533417D01*
X116589217Y-45611645D01*
X112921651Y-49279213D01*
X112843418Y-49343417D01*
X112587241Y-49655570D01*
X112509737Y-49800570D01*
X112396883Y-50011704D01*
X112279662Y-50398131D01*
X112240081Y-50800000D01*
X112250001Y-50900718D01*
X112250000Y-81179292D01*
X112240081Y-81280000D01*
X112250000Y-81380708D01*
X112279662Y-81681869D01*
X112396883Y-82068296D01*
X112587240Y-82424430D01*
X112843417Y-82736583D01*
X112921656Y-82800792D01*
X116589217Y-86468355D01*
X116653417Y-86546583D01*
X116965570Y-86802760D01*
X117284432Y-86973195D01*
X117321703Y-86993117D01*
X117708130Y-87110338D01*
X118110000Y-87149919D01*
X118210709Y-87140000D01*
X118555346Y-87140000D01*
X118500000Y-87418243D01*
X118500000Y-87841757D01*
X118582623Y-88257132D01*
X118719448Y-88587455D01*
X118713860Y-88594264D01*
X118593145Y-88820104D01*
X118518810Y-89065155D01*
X118493710Y-89320000D01*
X118493710Y-91020000D01*
X118518810Y-91274845D01*
X118593145Y-91519896D01*
X118713860Y-91745736D01*
X118876313Y-91943687D01*
X119074264Y-92106140D01*
X119300104Y-92226855D01*
X119425852Y-92265000D01*
X115550000Y-92265000D01*
X115550000Y-101165000D01*
X117264286Y-101165000D01*
X117264286Y-104295000D01*
X136735715Y-104295000D01*
X136735715Y-101165000D01*
X138450000Y-101165000D01*
X138450000Y-99439136D01*
X140719217Y-101708355D01*
X140783417Y-101786583D01*
X141095570Y-102042760D01*
X141451703Y-102233117D01*
X141720908Y-102314779D01*
X141838129Y-102350338D01*
X142239999Y-102389919D01*
X142340708Y-102380000D01*
X148497279Y-102380000D01*
X148510104Y-102386855D01*
X148755155Y-102461190D01*
X149010000Y-102486290D01*
X150710000Y-102486290D01*
X150964845Y-102461190D01*
X151209896Y-102386855D01*
X151435736Y-102266140D01*
X151633687Y-102103687D01*
X151796140Y-101905736D01*
X151916855Y-101679896D01*
X151991190Y-101434845D01*
X152016290Y-101180000D01*
X152016290Y-99480000D01*
X151991190Y-99225155D01*
X151916855Y-98980104D01*
X151796140Y-98754264D01*
X151790552Y-98747455D01*
X151927377Y-98417132D01*
X152010000Y-98001757D01*
X152010000Y-97578243D01*
X151927377Y-97162868D01*
X151765305Y-96771593D01*
X151597196Y-96520000D01*
X151765305Y-96268407D01*
X151927377Y-95877132D01*
X152010000Y-95461757D01*
X152010000Y-95038243D01*
X151927377Y-94622868D01*
X151765305Y-94231593D01*
X151597196Y-93980000D01*
X151765305Y-93728407D01*
X151927377Y-93337132D01*
X152010000Y-92921757D01*
X152010000Y-92498243D01*
X151927377Y-92082868D01*
X151765305Y-91691593D01*
X151597196Y-91440000D01*
X151765305Y-91188407D01*
X151927377Y-90797132D01*
X152010000Y-90381757D01*
X152010000Y-89958243D01*
X151927377Y-89542868D01*
X151765305Y-89151593D01*
X151597196Y-88900000D01*
X151765305Y-88648407D01*
X151927377Y-88257132D01*
X152010000Y-87841757D01*
X152010000Y-87418243D01*
X151927377Y-87002868D01*
X151910000Y-86960916D01*
X151910000Y-85190708D01*
X151919919Y-85089999D01*
X151880338Y-84688129D01*
X151829312Y-84519919D01*
X151763117Y-84301703D01*
X151572760Y-83945570D01*
X151316583Y-83633417D01*
X151238349Y-83569212D01*
X151053449Y-83384312D01*
X151209896Y-83336855D01*
X151435736Y-83216140D01*
X151633687Y-83053687D01*
X151796140Y-82855736D01*
X151916855Y-82629896D01*
X151991190Y-82384845D01*
X152016290Y-82130000D01*
X152016290Y-80430000D01*
X151991190Y-80175155D01*
X151916855Y-79930104D01*
X151796140Y-79704264D01*
X151633687Y-79506313D01*
X151435736Y-79343860D01*
X151316059Y-79279891D01*
X151386650Y-79050982D01*
X151389446Y-79036914D01*
X151239944Y-78794000D01*
X149914000Y-78794000D01*
X149914000Y-78814000D01*
X149806000Y-78814000D01*
X149806000Y-78794000D01*
X148480056Y-78794000D01*
X148330554Y-79036914D01*
X148333350Y-79050982D01*
X148391525Y-79239629D01*
X148188130Y-79259662D01*
X147801703Y-79376883D01*
X147768228Y-79394776D01*
X146816538Y-78443086D01*
X148330554Y-78443086D01*
X148480056Y-78686000D01*
X149806000Y-78686000D01*
X149806000Y-77359934D01*
X149914000Y-77359934D01*
X149914000Y-78686000D01*
X151239944Y-78686000D01*
X151389446Y-78443086D01*
X151386650Y-78429018D01*
X151296646Y-78137159D01*
X151151433Y-77868467D01*
X150956591Y-77633267D01*
X150719607Y-77440598D01*
X150449589Y-77297865D01*
X150156914Y-77210552D01*
X149914000Y-77359934D01*
X149806000Y-77359934D01*
X149563086Y-77210552D01*
X149270411Y-77297865D01*
X149000393Y-77440598D01*
X148763409Y-77633267D01*
X148568567Y-77868467D01*
X148423354Y-78137159D01*
X148333350Y-78429018D01*
X148330554Y-78443086D01*
X146816538Y-78443086D01*
X145160000Y-76786549D01*
X145160000Y-76150903D01*
X145222760Y-76074430D01*
X145413117Y-75718297D01*
X145530338Y-75331870D01*
X145569919Y-74930000D01*
X145530338Y-74528130D01*
X145413117Y-74141703D01*
X145222760Y-73785570D01*
X144966583Y-73473417D01*
X144654430Y-73217240D01*
X144298297Y-73026883D01*
X143911870Y-72909662D01*
X143610709Y-72880000D01*
X141655001Y-72880000D01*
X141655001Y-72488169D01*
X141574299Y-72082454D01*
X141415997Y-71700278D01*
X141186178Y-71356329D01*
X140893673Y-71063824D01*
X140801652Y-71002338D01*
X140805958Y-70997128D01*
X140939150Y-70750000D01*
X143168574Y-70750000D01*
X143182244Y-70888792D01*
X143222728Y-71022251D01*
X143288471Y-71145247D01*
X143376946Y-71253054D01*
X143484753Y-71341529D01*
X143607749Y-71407272D01*
X143741208Y-71447756D01*
X143880000Y-71461426D01*
X144549000Y-71458000D01*
X144726000Y-71281000D01*
X144726000Y-69904000D01*
X143349000Y-69904000D01*
X143172000Y-70081000D01*
X143168574Y-70750000D01*
X140939150Y-70750000D01*
X140946212Y-70736897D01*
X141033003Y-70454304D01*
X141035032Y-70444088D01*
X140884905Y-70209001D01*
X139609001Y-70209001D01*
X139609001Y-70229001D01*
X139501001Y-70229001D01*
X139501001Y-70209001D01*
X138225097Y-70209001D01*
X138074970Y-70444088D01*
X138076999Y-70454304D01*
X138163790Y-70736897D01*
X138304044Y-70997128D01*
X138308350Y-71002338D01*
X138216329Y-71063824D01*
X137923824Y-71356329D01*
X137694005Y-71700278D01*
X137617672Y-71884563D01*
X137561029Y-71697837D01*
X137393887Y-71385135D01*
X137168950Y-71111050D01*
X137100267Y-71054683D01*
X134990322Y-68944739D01*
X134933951Y-68876051D01*
X134659866Y-68651114D01*
X134347164Y-68483972D01*
X134007863Y-68381046D01*
X133895310Y-68369960D01*
X133954299Y-68227548D01*
X134035001Y-67821833D01*
X134035001Y-67408169D01*
X133954299Y-67002454D01*
X133795997Y-66620278D01*
X133612063Y-66345001D01*
X133795997Y-66069724D01*
X133954299Y-65687548D01*
X134035001Y-65281833D01*
X134035001Y-64868169D01*
X133954299Y-64462454D01*
X133795997Y-64080278D01*
X133612063Y-63805001D01*
X133795997Y-63529724D01*
X133954299Y-63147548D01*
X134035001Y-62741833D01*
X134035001Y-62328169D01*
X133954299Y-61922454D01*
X133795997Y-61540278D01*
X133612063Y-61265001D01*
X133795997Y-60989724D01*
X133954299Y-60607548D01*
X134035001Y-60201833D01*
X134035001Y-59788169D01*
X133954299Y-59382454D01*
X133795997Y-59000278D01*
X133612063Y-58725001D01*
X133795997Y-58449724D01*
X133954299Y-58067548D01*
X134035001Y-57661833D01*
X134035001Y-57248169D01*
X133954299Y-56842454D01*
X133799052Y-56467653D01*
X133821141Y-56440737D01*
X133941856Y-56214897D01*
X134016191Y-55969846D01*
X134041291Y-55715001D01*
X134041291Y-54115001D01*
X134016191Y-53860156D01*
X133985001Y-53757336D01*
X133985001Y-51794136D01*
X134199137Y-51580000D01*
X139055837Y-51580000D01*
X138411962Y-52223875D01*
X138347105Y-52277102D01*
X138293878Y-52341959D01*
X138293869Y-52341968D01*
X138134664Y-52535960D01*
X138013757Y-52762163D01*
X137976808Y-52831290D01*
X137879599Y-53151741D01*
X137855001Y-53401489D01*
X137855001Y-53401499D01*
X137846777Y-53484999D01*
X137855001Y-53568499D01*
X137855001Y-53679330D01*
X137694005Y-53920278D01*
X137535703Y-54302454D01*
X137455001Y-54708169D01*
X137455001Y-55121833D01*
X137535703Y-55527548D01*
X137694005Y-55909724D01*
X137877939Y-56185001D01*
X137694005Y-56460278D01*
X137535703Y-56842454D01*
X137455001Y-57248169D01*
X137455001Y-57661833D01*
X137535703Y-58067548D01*
X137694005Y-58449724D01*
X137877939Y-58725001D01*
X137694005Y-59000278D01*
X137535703Y-59382454D01*
X137455001Y-59788169D01*
X137455001Y-60201833D01*
X137535703Y-60607548D01*
X137694005Y-60989724D01*
X137877939Y-61265001D01*
X137694005Y-61540278D01*
X137535703Y-61922454D01*
X137455001Y-62328169D01*
X137455001Y-62741833D01*
X137535703Y-63147548D01*
X137694005Y-63529724D01*
X137877939Y-63805001D01*
X137694005Y-64080278D01*
X137535703Y-64462454D01*
X137455001Y-64868169D01*
X137455001Y-65281833D01*
X137535703Y-65687548D01*
X137694005Y-66069724D01*
X137877939Y-66345001D01*
X137694005Y-66620278D01*
X137535703Y-67002454D01*
X137455001Y-67408169D01*
X137455001Y-67821833D01*
X137535703Y-68227548D01*
X137694005Y-68609724D01*
X137923824Y-68953673D01*
X138216329Y-69246178D01*
X138308350Y-69307664D01*
X138304044Y-69312874D01*
X138163790Y-69573105D01*
X138076999Y-69855698D01*
X138074970Y-69865914D01*
X138225097Y-70101001D01*
X139501001Y-70101001D01*
X139501001Y-70081001D01*
X139609001Y-70081001D01*
X139609001Y-70101001D01*
X140884905Y-70101001D01*
X141035032Y-69865914D01*
X141033003Y-69855698D01*
X140946212Y-69573105D01*
X140861000Y-69415001D01*
X141846583Y-69415001D01*
X141934999Y-69423709D01*
X142023415Y-69415001D01*
X142023423Y-69415001D01*
X142287861Y-69388956D01*
X142627162Y-69286030D01*
X142939864Y-69118888D01*
X143170590Y-68929535D01*
X143168574Y-68950000D01*
X143172000Y-69619000D01*
X143349000Y-69796000D01*
X144726000Y-69796000D01*
X144726000Y-68419000D01*
X144549000Y-68242000D01*
X143880000Y-68238574D01*
X143854497Y-68241086D01*
X145169294Y-66926290D01*
X145630000Y-66926290D01*
X145670001Y-66922350D01*
X145670000Y-68238625D01*
X145011000Y-68242000D01*
X144834000Y-68419000D01*
X144834000Y-69796000D01*
X144854000Y-69796000D01*
X144854000Y-69904000D01*
X144834000Y-69904000D01*
X144834000Y-71281000D01*
X145011000Y-71458000D01*
X145680000Y-71461426D01*
X145807589Y-71448859D01*
X145917582Y-71558852D01*
X146277909Y-71799615D01*
X146587898Y-71928016D01*
X146569662Y-71988131D01*
X146530081Y-72390000D01*
X146540001Y-72490718D01*
X146540000Y-75030708D01*
X146569662Y-75331869D01*
X146686883Y-75718296D01*
X146877240Y-76074430D01*
X147133417Y-76386583D01*
X147445570Y-76642760D01*
X147801703Y-76833117D01*
X148188130Y-76950338D01*
X148590000Y-76989919D01*
X148991869Y-76950338D01*
X149378296Y-76833117D01*
X149734430Y-76642760D01*
X150046583Y-76386583D01*
X150302760Y-76074430D01*
X150493117Y-75718297D01*
X150610338Y-75331870D01*
X150640000Y-75030709D01*
X150640000Y-73239136D01*
X153615000Y-70264137D01*
X153615001Y-105355000D01*
X111815000Y-105355000D01*
X111815000Y-43235000D01*
X153615000Y-43235000D01*
X153615000Y-61815864D01*
G37*
%TD.AperFunction*%
D27*
X117323145Y-50879896D02*
X117443860Y-51105736D01*
X117449448Y-51112545D01*
X117312623Y-51442868D01*
X117230000Y-51858243D01*
X117230000Y-52281757D01*
X117312623Y-52697132D01*
X117474695Y-53088407D01*
X117642804Y-53340000D01*
X117474695Y-53591593D01*
X117312623Y-53982868D01*
X117230000Y-54398243D01*
X117230000Y-54821757D01*
X117312623Y-55237132D01*
X117474695Y-55628407D01*
X117642804Y-55880000D01*
X117474695Y-56131593D01*
X117312623Y-56522868D01*
X117230000Y-56938243D01*
X117230000Y-57361757D01*
X117312623Y-57777132D01*
X117474695Y-58168407D01*
X117642804Y-58420000D01*
X117474695Y-58671593D01*
X117312623Y-59062868D01*
X117230000Y-59478243D01*
X117230000Y-59901757D01*
X117312623Y-60317132D01*
X117474695Y-60708407D01*
X117642804Y-60960000D01*
X117474695Y-61211593D01*
X117312623Y-61602868D01*
X117230000Y-62018243D01*
X117230000Y-62441757D01*
X117312623Y-62857132D01*
X117474695Y-63248407D01*
X117642804Y-63500000D01*
X117474695Y-63751593D01*
X117312623Y-64142868D01*
X117230000Y-64558243D01*
X117230000Y-64981757D01*
X117312623Y-65397132D01*
X117474695Y-65788407D01*
X117642804Y-66040000D01*
X117474695Y-66291593D01*
X117312623Y-66682868D01*
X117230000Y-67098243D01*
X117230000Y-67521757D01*
X117312623Y-67937132D01*
X117474695Y-68328407D01*
X117709986Y-68680545D01*
X118009455Y-68980014D01*
X118361593Y-69215305D01*
X118752868Y-69377377D01*
X119168243Y-69460000D01*
X119591757Y-69460000D01*
X120007132Y-69377377D01*
X120398407Y-69215305D01*
X120750545Y-68980014D01*
X121050014Y-68680545D01*
X121285305Y-68328407D01*
X121447377Y-67937132D01*
X121530000Y-67521757D01*
X121530000Y-67098243D01*
X121447377Y-66682868D01*
X121285305Y-66291593D01*
X121117196Y-66040000D01*
X121285305Y-65788407D01*
X121437299Y-65421462D01*
X122437691Y-66421854D01*
X122439662Y-66441869D01*
X122556883Y-66828296D01*
X122747241Y-67184429D01*
X122939220Y-67418356D01*
X124514217Y-68993355D01*
X124578418Y-69071584D01*
X124890571Y-69327761D01*
X125246704Y-69518118D01*
X125633131Y-69635339D01*
X126035001Y-69674920D01*
X126135710Y-69665001D01*
X129891327Y-69665001D01*
X129835001Y-69948169D01*
X129835001Y-70361833D01*
X129915703Y-70767548D01*
X130074005Y-71149724D01*
X130303824Y-71493673D01*
X130596329Y-71786178D01*
X130688350Y-71847664D01*
X130684044Y-71852874D01*
X130543790Y-72113105D01*
X130456999Y-72395698D01*
X130454970Y-72405914D01*
X130605097Y-72641001D01*
X131881001Y-72641001D01*
X131881001Y-72621001D01*
X131989001Y-72621001D01*
X131989001Y-72641001D01*
X133264905Y-72641001D01*
X133393714Y-72439297D01*
X134090001Y-73135584D01*
X134090000Y-74841584D01*
X134081292Y-74930000D01*
X134090000Y-75018416D01*
X134090000Y-75018423D01*
X134116045Y-75282861D01*
X134218971Y-75622162D01*
X134386113Y-75934864D01*
X134611050Y-76208950D01*
X134679739Y-76265322D01*
X134859679Y-76445262D01*
X134916051Y-76513951D01*
X135190136Y-76738888D01*
X135502838Y-76906030D01*
X135842139Y-77008956D01*
X136106577Y-77035001D01*
X136106585Y-77035001D01*
X136195001Y-77043709D01*
X136283417Y-77035001D01*
X137588496Y-77035001D01*
X137535703Y-77162454D01*
X137455001Y-77568169D01*
X137455001Y-77981833D01*
X137535703Y-78387548D01*
X137694005Y-78769724D01*
X137877939Y-79045001D01*
X137694005Y-79320278D01*
X137535703Y-79702454D01*
X137455001Y-80108169D01*
X137455001Y-80521833D01*
X137535703Y-80927548D01*
X137694005Y-81309724D01*
X137877939Y-81585001D01*
X137694005Y-81860278D01*
X137535703Y-82242454D01*
X137455001Y-82648169D01*
X137455001Y-83061833D01*
X137535703Y-83467548D01*
X137694005Y-83849724D01*
X137877939Y-84125001D01*
X137694005Y-84400278D01*
X137535703Y-84782454D01*
X137455001Y-85188169D01*
X137455001Y-85601833D01*
X137535703Y-86007548D01*
X137694005Y-86389724D01*
X137877939Y-86665001D01*
X137694005Y-86940278D01*
X137535703Y-87322454D01*
X137455001Y-87728169D01*
X137455001Y-88141833D01*
X137505001Y-88393200D01*
X137505001Y-88885865D01*
X135175793Y-86556657D01*
X135111584Y-86478418D01*
X134799431Y-86222241D01*
X134443298Y-86031884D01*
X134056871Y-85914663D01*
X133974391Y-85906539D01*
X134035001Y-85601833D01*
X134035001Y-85188169D01*
X133954299Y-84782454D01*
X133795997Y-84400278D01*
X133612063Y-84125001D01*
X133795997Y-83849724D01*
X133954299Y-83467548D01*
X134035001Y-83061833D01*
X134035001Y-82648169D01*
X133954299Y-82242454D01*
X133795997Y-81860278D01*
X133612063Y-81585001D01*
X133795997Y-81309724D01*
X133954299Y-80927548D01*
X134035001Y-80521833D01*
X134035001Y-80108169D01*
X133954299Y-79702454D01*
X133795997Y-79320278D01*
X133612063Y-79045001D01*
X133795997Y-78769724D01*
X133954299Y-78387548D01*
X134035001Y-77981833D01*
X134035001Y-77568169D01*
X133954299Y-77162454D01*
X133795997Y-76780278D01*
X133612063Y-76505001D01*
X133795997Y-76229724D01*
X133954299Y-75847548D01*
X134035001Y-75441833D01*
X134035001Y-75028169D01*
X133954299Y-74622454D01*
X133795997Y-74240278D01*
X133566178Y-73896329D01*
X133273673Y-73603824D01*
X133181652Y-73542338D01*
X133185958Y-73537128D01*
X133326212Y-73276897D01*
X133413003Y-72994304D01*
X133415032Y-72984088D01*
X133264905Y-72749001D01*
X131989001Y-72749001D01*
X131989001Y-72769001D01*
X131881001Y-72769001D01*
X131881001Y-72749001D01*
X130605097Y-72749001D01*
X130521441Y-72880000D01*
X125309137Y-72880000D01*
X123440792Y-71011655D01*
X123376583Y-70933417D01*
X123064430Y-70677240D01*
X122708297Y-70486883D01*
X122321870Y-70369662D01*
X122020709Y-70340000D01*
X122020708Y-70340000D01*
X121920000Y-70330081D01*
X121819292Y-70340000D01*
X119322920Y-70340000D01*
X119255871Y-70319661D01*
X118954710Y-70289999D01*
X118954709Y-70289999D01*
X118854001Y-70280080D01*
X118753293Y-70289999D01*
X118009291Y-70289999D01*
X117708130Y-70319661D01*
X117321703Y-70436882D01*
X117097877Y-70556520D01*
X117010104Y-70583145D01*
X116784264Y-70703860D01*
X116586313Y-70866313D01*
X116423860Y-71064264D01*
X116350000Y-71202445D01*
X116350000Y-51649136D01*
X117275688Y-50723449D01*
X117323145Y-50879896D01*
%TA.AperFunction,Conductor*%
D28*
G36*
X117323145Y-50879896D02*
G01*
X117443860Y-51105736D01*
X117449448Y-51112545D01*
X117312623Y-51442868D01*
X117230000Y-51858243D01*
X117230000Y-52281757D01*
X117312623Y-52697132D01*
X117474695Y-53088407D01*
X117642804Y-53340000D01*
X117474695Y-53591593D01*
X117312623Y-53982868D01*
X117230000Y-54398243D01*
X117230000Y-54821757D01*
X117312623Y-55237132D01*
X117474695Y-55628407D01*
X117642804Y-55880000D01*
X117474695Y-56131593D01*
X117312623Y-56522868D01*
X117230000Y-56938243D01*
X117230000Y-57361757D01*
X117312623Y-57777132D01*
X117474695Y-58168407D01*
X117642804Y-58420000D01*
X117474695Y-58671593D01*
X117312623Y-59062868D01*
X117230000Y-59478243D01*
X117230000Y-59901757D01*
X117312623Y-60317132D01*
X117474695Y-60708407D01*
X117642804Y-60960000D01*
X117474695Y-61211593D01*
X117312623Y-61602868D01*
X117230000Y-62018243D01*
X117230000Y-62441757D01*
X117312623Y-62857132D01*
X117474695Y-63248407D01*
X117642804Y-63500000D01*
X117474695Y-63751593D01*
X117312623Y-64142868D01*
X117230000Y-64558243D01*
X117230000Y-64981757D01*
X117312623Y-65397132D01*
X117474695Y-65788407D01*
X117642804Y-66040000D01*
X117474695Y-66291593D01*
X117312623Y-66682868D01*
X117230000Y-67098243D01*
X117230000Y-67521757D01*
X117312623Y-67937132D01*
X117474695Y-68328407D01*
X117709986Y-68680545D01*
X118009455Y-68980014D01*
X118361593Y-69215305D01*
X118752868Y-69377377D01*
X119168243Y-69460000D01*
X119591757Y-69460000D01*
X120007132Y-69377377D01*
X120398407Y-69215305D01*
X120750545Y-68980014D01*
X121050014Y-68680545D01*
X121285305Y-68328407D01*
X121447377Y-67937132D01*
X121530000Y-67521757D01*
X121530000Y-67098243D01*
X121447377Y-66682868D01*
X121285305Y-66291593D01*
X121117196Y-66040000D01*
X121285305Y-65788407D01*
X121437299Y-65421462D01*
X122437691Y-66421854D01*
X122439662Y-66441869D01*
X122556883Y-66828296D01*
X122747241Y-67184429D01*
X122939220Y-67418356D01*
X124514217Y-68993355D01*
X124578418Y-69071584D01*
X124890571Y-69327761D01*
X125246704Y-69518118D01*
X125633131Y-69635339D01*
X126035001Y-69674920D01*
X126135710Y-69665001D01*
X129891327Y-69665001D01*
X129835001Y-69948169D01*
X129835001Y-70361833D01*
X129915703Y-70767548D01*
X130074005Y-71149724D01*
X130303824Y-71493673D01*
X130596329Y-71786178D01*
X130688350Y-71847664D01*
X130684044Y-71852874D01*
X130543790Y-72113105D01*
X130456999Y-72395698D01*
X130454970Y-72405914D01*
X130605097Y-72641001D01*
X131881001Y-72641001D01*
X131881001Y-72621001D01*
X131989001Y-72621001D01*
X131989001Y-72641001D01*
X133264905Y-72641001D01*
X133393714Y-72439297D01*
X134090001Y-73135584D01*
X134090000Y-74841584D01*
X134081292Y-74930000D01*
X134090000Y-75018416D01*
X134090000Y-75018423D01*
X134116045Y-75282861D01*
X134218971Y-75622162D01*
X134386113Y-75934864D01*
X134611050Y-76208950D01*
X134679739Y-76265322D01*
X134859679Y-76445262D01*
X134916051Y-76513951D01*
X135190136Y-76738888D01*
X135502838Y-76906030D01*
X135842139Y-77008956D01*
X136106577Y-77035001D01*
X136106585Y-77035001D01*
X136195001Y-77043709D01*
X136283417Y-77035001D01*
X137588496Y-77035001D01*
X137535703Y-77162454D01*
X137455001Y-77568169D01*
X137455001Y-77981833D01*
X137535703Y-78387548D01*
X137694005Y-78769724D01*
X137877939Y-79045001D01*
X137694005Y-79320278D01*
X137535703Y-79702454D01*
X137455001Y-80108169D01*
X137455001Y-80521833D01*
X137535703Y-80927548D01*
X137694005Y-81309724D01*
X137877939Y-81585001D01*
X137694005Y-81860278D01*
X137535703Y-82242454D01*
X137455001Y-82648169D01*
X137455001Y-83061833D01*
X137535703Y-83467548D01*
X137694005Y-83849724D01*
X137877939Y-84125001D01*
X137694005Y-84400278D01*
X137535703Y-84782454D01*
X137455001Y-85188169D01*
X137455001Y-85601833D01*
X137535703Y-86007548D01*
X137694005Y-86389724D01*
X137877939Y-86665001D01*
X137694005Y-86940278D01*
X137535703Y-87322454D01*
X137455001Y-87728169D01*
X137455001Y-88141833D01*
X137505001Y-88393200D01*
X137505001Y-88885865D01*
X135175793Y-86556657D01*
X135111584Y-86478418D01*
X134799431Y-86222241D01*
X134443298Y-86031884D01*
X134056871Y-85914663D01*
X133974391Y-85906539D01*
X134035001Y-85601833D01*
X134035001Y-85188169D01*
X133954299Y-84782454D01*
X133795997Y-84400278D01*
X133612063Y-84125001D01*
X133795997Y-83849724D01*
X133954299Y-83467548D01*
X134035001Y-83061833D01*
X134035001Y-82648169D01*
X133954299Y-82242454D01*
X133795997Y-81860278D01*
X133612063Y-81585001D01*
X133795997Y-81309724D01*
X133954299Y-80927548D01*
X134035001Y-80521833D01*
X134035001Y-80108169D01*
X133954299Y-79702454D01*
X133795997Y-79320278D01*
X133612063Y-79045001D01*
X133795997Y-78769724D01*
X133954299Y-78387548D01*
X134035001Y-77981833D01*
X134035001Y-77568169D01*
X133954299Y-77162454D01*
X133795997Y-76780278D01*
X133612063Y-76505001D01*
X133795997Y-76229724D01*
X133954299Y-75847548D01*
X134035001Y-75441833D01*
X134035001Y-75028169D01*
X133954299Y-74622454D01*
X133795997Y-74240278D01*
X133566178Y-73896329D01*
X133273673Y-73603824D01*
X133181652Y-73542338D01*
X133185958Y-73537128D01*
X133326212Y-73276897D01*
X133413003Y-72994304D01*
X133415032Y-72984088D01*
X133264905Y-72749001D01*
X131989001Y-72749001D01*
X131989001Y-72769001D01*
X131881001Y-72769001D01*
X131881001Y-72749001D01*
X130605097Y-72749001D01*
X130521441Y-72880000D01*
X125309137Y-72880000D01*
X123440792Y-71011655D01*
X123376583Y-70933417D01*
X123064430Y-70677240D01*
X122708297Y-70486883D01*
X122321870Y-70369662D01*
X122020709Y-70340000D01*
X122020708Y-70340000D01*
X121920000Y-70330081D01*
X121819292Y-70340000D01*
X119322920Y-70340000D01*
X119255871Y-70319661D01*
X118954710Y-70289999D01*
X118954709Y-70289999D01*
X118854001Y-70280080D01*
X118753293Y-70289999D01*
X118009291Y-70289999D01*
X117708130Y-70319661D01*
X117321703Y-70436882D01*
X117097877Y-70556520D01*
X117010104Y-70583145D01*
X116784264Y-70703860D01*
X116586313Y-70866313D01*
X116423860Y-71064264D01*
X116350000Y-71202445D01*
X116350000Y-51649136D01*
X117275688Y-50723449D01*
X117323145Y-50879896D01*
G37*
%TD.AperFunction*%
D27*
X116423860Y-73715736D02*
X116586313Y-73913687D01*
X116784264Y-74076140D01*
X116815799Y-74092996D01*
X116821395Y-74148768D01*
X116896638Y-74395190D01*
X117015843Y-74618204D01*
X117268510Y-74655122D01*
X117597004Y-74326628D01*
X117708130Y-74360337D01*
X117715323Y-74361045D01*
X117344878Y-74731490D01*
X117381796Y-74984157D01*
X117609247Y-75105199D01*
X117855943Y-75179541D01*
X118112401Y-75204328D01*
X118368768Y-75178605D01*
X118615190Y-75103362D01*
X118838204Y-74984157D01*
X118875122Y-74731490D01*
X118559633Y-74416001D01*
X118729056Y-74432688D01*
X118951490Y-74655122D01*
X119204157Y-74618204D01*
X119298991Y-74440000D01*
X121070863Y-74440000D01*
X122939217Y-76308355D01*
X123003417Y-76386583D01*
X123315570Y-76642760D01*
X123671703Y-76833117D01*
X123912066Y-76906030D01*
X124058129Y-76950338D01*
X124459999Y-76989919D01*
X124560708Y-76980000D01*
X125680863Y-76980000D01*
X124423206Y-78237657D01*
X124423201Y-78237661D01*
X124351643Y-78309219D01*
X122160864Y-80500000D01*
X120229137Y-80500000D01*
X120160000Y-80430864D01*
X120160000Y-79959293D01*
X120130338Y-79658132D01*
X120013117Y-79271705D01*
X120000309Y-79247743D01*
X119991190Y-79155155D01*
X119916855Y-78910104D01*
X119796140Y-78684264D01*
X119633687Y-78486313D01*
X119435736Y-78323860D01*
X119404201Y-78307004D01*
X119398605Y-78251232D01*
X119323362Y-78004810D01*
X119204157Y-77781796D01*
X118951490Y-77744878D01*
X118622996Y-78073372D01*
X118511870Y-78039663D01*
X118504677Y-78038955D01*
X118875122Y-77668510D01*
X118838204Y-77415843D01*
X118610753Y-77294801D01*
X118364057Y-77220459D01*
X118107599Y-77195672D01*
X117851232Y-77221395D01*
X117604810Y-77296638D01*
X117381796Y-77415843D01*
X117344878Y-77668510D01*
X117715323Y-78038955D01*
X117708131Y-78039663D01*
X117597005Y-78073373D01*
X117268510Y-77744878D01*
X117015843Y-77781796D01*
X116894801Y-78009247D01*
X116820459Y-78255943D01*
X116815509Y-78307159D01*
X116784264Y-78323860D01*
X116586313Y-78486313D01*
X116423860Y-78684264D01*
X116350000Y-78822445D01*
X116350000Y-73577555D01*
X116423860Y-73715736D01*
%TA.AperFunction,Conductor*%
D28*
G36*
X116423860Y-73715736D02*
G01*
X116586313Y-73913687D01*
X116784264Y-74076140D01*
X116815799Y-74092996D01*
X116821395Y-74148768D01*
X116896638Y-74395190D01*
X117015843Y-74618204D01*
X117268510Y-74655122D01*
X117597004Y-74326628D01*
X117708130Y-74360337D01*
X117715323Y-74361045D01*
X117344878Y-74731490D01*
X117381796Y-74984157D01*
X117609247Y-75105199D01*
X117855943Y-75179541D01*
X118112401Y-75204328D01*
X118368768Y-75178605D01*
X118615190Y-75103362D01*
X118838204Y-74984157D01*
X118875122Y-74731490D01*
X118559633Y-74416001D01*
X118729056Y-74432688D01*
X118951490Y-74655122D01*
X119204157Y-74618204D01*
X119298991Y-74440000D01*
X121070863Y-74440000D01*
X122939217Y-76308355D01*
X123003417Y-76386583D01*
X123315570Y-76642760D01*
X123671703Y-76833117D01*
X123912066Y-76906030D01*
X124058129Y-76950338D01*
X124459999Y-76989919D01*
X124560708Y-76980000D01*
X125680863Y-76980000D01*
X124423206Y-78237657D01*
X124423201Y-78237661D01*
X124351643Y-78309219D01*
X122160864Y-80500000D01*
X120229137Y-80500000D01*
X120160000Y-80430864D01*
X120160000Y-79959293D01*
X120130338Y-79658132D01*
X120013117Y-79271705D01*
X120000309Y-79247743D01*
X119991190Y-79155155D01*
X119916855Y-78910104D01*
X119796140Y-78684264D01*
X119633687Y-78486313D01*
X119435736Y-78323860D01*
X119404201Y-78307004D01*
X119398605Y-78251232D01*
X119323362Y-78004810D01*
X119204157Y-77781796D01*
X118951490Y-77744878D01*
X118622996Y-78073372D01*
X118511870Y-78039663D01*
X118504677Y-78038955D01*
X118875122Y-77668510D01*
X118838204Y-77415843D01*
X118610753Y-77294801D01*
X118364057Y-77220459D01*
X118107599Y-77195672D01*
X117851232Y-77221395D01*
X117604810Y-77296638D01*
X117381796Y-77415843D01*
X117344878Y-77668510D01*
X117715323Y-78038955D01*
X117708131Y-78039663D01*
X117597005Y-78073373D01*
X117268510Y-77744878D01*
X117015843Y-77781796D01*
X116894801Y-78009247D01*
X116820459Y-78255943D01*
X116815509Y-78307159D01*
X116784264Y-78323860D01*
X116586313Y-78486313D01*
X116423860Y-78684264D01*
X116350000Y-78822445D01*
X116350000Y-73577555D01*
X116423860Y-73715736D01*
G37*
%TD.AperFunction*%
%TD*%
M02*
